<?xml version="1.0" encoding="utf-8"?>
<!-- Generator: Adobe Illustrator 25.1.0, SVG Export Plug-In . SVG Version: 6.00 Build 0)  -->
<svg version="1.1" id="Layer_1" xmlns="http://www.w3.org/2000/svg" xmlns:xlink="http://www.w3.org/1999/xlink" x="0px" y="0px"
	 viewBox="0 0 500 500" style="enable-background:new 0 0 500 500;" xml:space="preserve">
<style type="text/css">
	.st0{fill:url(#SVGID_1_);}
	.st1{opacity:0.74;fill:#FFFFFF;}
	.st2{fill:#FFFFFF;}
</style>
<linearGradient id="SVGID_1_" gradientUnits="userSpaceOnUse" x1="469.5617" y1="472.2088" x2="29.1736" y2="31.8207">
	<stop  offset="0" style="stop-color:#83A4D4"/>
	<stop  offset="1" style="stop-color:#B6FBFF"/>
</linearGradient>
<path class="st0" d="M439.4,484.7H59.3c-23.5,0-42.6-19.1-42.6-42.6V62c0-23.5,19.1-42.6,42.6-42.6h380.1C463,19.3,482,38.4,482,62
	v380.1C482,465.6,463,484.7,439.4,484.7z"/>
<g>
	<path class="st1" d="M318.2,394.6l-13.8-24c-5.2-2.7-9.8-6.5-13.5-10.9c-3.5-4.2-6.2-9.1-8-14.2c-6.8-1.6-17.5-5.4-27-14.6
		c-5.6-5.4-9.9-11.7-13-18.9l-1.3-3l3.5-2.6c4.3-3.2,9.2-6.9,16.3-10.9c3.8-2.2,7.8-4.1,11.9-5.9l0.9-0.4l1,0
		c15.1,0.7,26.5-0.5,33-3.4c7-3.2,12.6-5.7,13.8-6.4l0.1-0.1c1.5-1.4,4.6-4.3,8.9-3.7c3.2,0.4,5.1,2.6,6.3,4l0,0
		c0.6,0.4,2.6,1.9,9.6,6.8c9.9,6.9,17.4,7.7,24.6,8.6c2.8,0.3,5.4,0.6,8.1,1.2c1.5,0.3,2.7,0.6,3.8,0.8l2.9,0.4l0.6,2.8
		c1.5,7.3,2.7,21.6-6.6,34.8c-11.4,16.3-29.5,18.3-36.7,18.4c-0.9,1.6-2.1,3.4-4,5c-1.7,1.5-3.5,2.5-5.1,3.1l6.7,24L318.2,394.6z
		 M251.9,311.6c2.5,5,5.7,9.4,9.7,13.2c9.3,8.9,19.8,11.9,25.2,12.9l2.6,0.5l0.7,2.5c1.4,4.9,3.8,9.6,7.1,13.6
		c3.3,3.9,7.4,7.1,11.9,9.4l1.2,0.6l11.4,19.9l9.4-3.7l-7.2-25.7l5-0.5c1.1-0.1,3.3-0.5,5.2-2.2c1.6-1.4,2.4-3.1,2.7-4.2l1-3.2
		l3.4,0.3c0.2,0,20.8,1.6,32.2-14.8c6.5-9.3,6.6-19.2,5.7-25.6c-0.5-0.1-0.9-0.2-1.4-0.3h0c-2.2-0.5-4.6-0.8-7.2-1.1
		c-7.5-0.8-16.9-1.9-28.5-10c-4.1-2.8-7-4.9-8.8-6.2c-0.8-0.6-1.5-1.1-2.1-1.7l0,0l-0.3-0.4c-0.3-0.4-0.8-1-1.1-1.1
		c-0.5,0.1-1.7,1.2-2.1,1.6l-0.3,0.2c-1.4,1.3-4.2,2.6-15.9,7.8c-7.6,3.4-19.7,4.8-35.8,4.2c-3.5,1.6-7,3.3-10.3,5.2
		C259.8,305.9,255.7,308.8,251.9,311.6z M337.4,279.6l0.2,0.2C337.6,279.8,337.5,279.7,337.4,279.6z M337.1,279.3L337.1,279.3
		L337.1,279.3z"/>
	<path class="st2" d="M213.4,328.4c-5,0-12.2-0.8-19.2-4.4c-14.4-7.4-19.5-21.9-21.3-29.2c-9.5,1.3-19.1,1.2-28.6-0.3
		c-7.9-1.2-15.6-3.5-23-6.6c-5.7-1.3-18.9-5.7-28-18.5c-4.4-6.1-7.2-13.3-8.2-21c-2.3-4.4-6.2-14.4-2.9-26.2c2-7,5.7-12,9-15.3
		c-0.6-2.8-0.8-6.7,0.8-10.9c1.2-3.2,3-5.5,4.7-7.2c-0.2-5.3,0.7-13.8,6.2-22.1c5.9-8.9,13.9-13,19-14.8c3-5.1,8.2-11.8,16.4-17
		c11.1-7,22.3-8.1,28.9-7.9c6.4-5.1,18.3-12.2,33.5-11c3.9,0.3,7.8,1.2,11.6,2.6c2.4-1.1,4.9-1.9,7.5-2.3c2.9-0.5,5.9-0.5,8.8,0
		c5.3-3.4,13.3-6.9,23.3-6.9c0.1,0,0.2,0,0.3,0c4.6,0,9.2,0.8,13.6,2.4c6.2-1.1,12.4-1.3,18.6-0.5c8.7,1.1,17.2,4.2,24.7,9
		c4.9-1.2,16.2-2.9,26.2,4c3.6,2.5,6.6,5.8,8.8,9.7c7.8,2.5,18.5,7.6,28.2,17.5c10.2,10.5,15,22,17.3,30.2
		c5.4,4.8,10.1,10.2,14,16.2c10.2,15.4,12.2,29.6,13,35.6c1.3,9.4,2.7,19.1-3.6,27.1c-1.3,1.7-2.8,3.2-4.6,4.5
		c1.5,2.2,2.5,4.5,3.1,7c2.4,10.2-3.9,18.3-6.9,22.2c-2.3,3-7,9.1-15,10.9c-4.4,1-7.9,0.2-11.9-0.7c-2.2-0.5-4.6-0.8-7.2-1.1
		c-7.5-0.8-16.9-1.9-28.5-10c-4.1-2.8-7-4.9-8.8-6.2c-0.8-0.6-1.5-1.1-2.1-1.7l0,0l-0.3-0.4c-0.3-0.4-0.8-1-1.1-1.1
		c-0.5,0.1-1.7,1.2-2.1,1.6l-0.3,0.2c-1.4,1.3-4.2,2.6-15.9,7.8c-7.6,3.4-19.7,4.8-35.8,4.2c-3.5,1.6-7,3.3-10.3,5.2
		c-6.6,3.7-11.1,7.1-15.4,10.3c-5.8,4.3-11.2,8.4-20,11.9c-3.1,1.2-6.2,2.5-10.6,3.1C218.3,328.2,216.2,328.4,213.4,328.4z
		 M179.9,285.1l0.5,4.4c0.1,0.8,2.5,19.3,17.6,27c8.9,4.6,18.4,3.5,20.2,3.2c3.5-0.5,5.9-1.5,8.8-2.6c7.8-3.1,12.6-6.7,18.1-10.8
		c4.3-3.2,9.3-6.9,16.3-10.9c3.8-2.2,7.8-4.1,11.9-5.9l0.9-0.4l1,0c15.1,0.7,26.5-0.5,33-3.4c7-3.2,12.6-5.7,13.8-6.4l0.1-0.1
		c1.5-1.4,4.6-4.3,8.9-3.7c3.2,0.4,5.1,2.6,6.3,4l0,0c0.6,0.4,2.6,1.9,9.6,6.8c9.9,6.9,17.4,7.7,24.6,8.6c2.8,0.3,5.4,0.6,8.1,1.2
		c3.8,0.9,5.8,1.3,8.2,0.7c5.1-1.1,8.3-5.3,10.2-7.8c2.4-3.1,6.8-8.9,5.4-15.2c-0.7-3.2-2.7-5.5-4.2-6.9l-4.6-4.3l5.7-2.6
		c2.6-1.1,4.6-2.7,6.1-4.6c3.8-4.9,3.3-11.2,1.9-20.8c-0.8-5.5-2.6-18.3-11.7-32.1c-3.8-5.7-8.3-10.8-13.5-15.3l-1-0.9l-0.3-1.3
		c-1.8-7.3-6-18-15.5-27.6c-9.2-9.4-19.3-13.8-26.3-15.8l-1.7-0.5l-0.8-1.6c-1.6-3.3-4-6.2-6.9-8.1c-8.6-5.9-18.8-3-20.8-2.3l-2,0.6
		l-1.7-1.2c-6.8-4.6-14.6-7.6-22.7-8.7c-5.6-0.7-11.4-0.5-17,0.7l-1.2,0.2l-1.1-0.4c-3.8-1.5-7.8-2.2-11.9-2.2c-0.1,0-0.2,0-0.2,0
		c-8.9,0-15.8,3.5-20,6.5l-1.5,1.1l-1.8-0.4c-2.4-0.6-4.9-0.7-7.4-0.3c-2.3,0.4-4.5,1.1-6.5,2.3l-1.8,1.1l-1.9-0.8
		c-3.5-1.5-7.2-2.4-10.9-2.7c-13.3-1.1-23.7,5.8-28.7,10.1l-1.3,1.1l-1.7-0.1c-5.2-0.3-15.5,0.1-25.6,6.6c-7.5,4.8-12,11-14.4,15.4
		l-0.8,1.5l-1.6,0.5c-3.1,0.9-10.8,4-16.1,12c-4.9,7.5-5.1,15.1-4.7,18.9l0.2,2.3l-1.8,1.4c-1.2,0.9-2.8,2.5-3.7,5
		c-1.3,3.5-0.4,6.7,0,7.9l1,2.7l-2.2,1.9c-2.9,2.5-6.6,6.7-8.4,13.1c-2.7,9.6,0.9,17.6,2.5,20.6l0.4,0.7l0.1,0.8
		c0.5,4.5,2.1,11.3,6.8,17.9c7.7,10.8,19,14.3,23.4,15.3l0.4,0.1l0.4,0.2c6.8,2.9,14,5,21.3,6.2c9.9,1.6,20,1.5,29.9-0.3
		L179.9,285.1z M337.4,279.6l0.2,0.2C337.6,279.8,337.5,279.7,337.4,279.6z"/>
</g>
</svg>
